<svg width="11" height="12" viewBox="0 0 11 12" fill="none" xmlns="http://www.w3.org/2000/svg">
<path fill-rule="evenodd" clip-rule="evenodd" d="M7.25215 7.17979H3.25215C1.70573 7.17979 0.452148 8.43336 0.452148 9.97979V10.7798C0.452148 11.0982 0.578935 11.4034 0.80376 11.6282C1.02894 11.8534 1.33411 11.9798 1.65215 11.9798H8.85215C9.17055 11.9798 9.47571 11.8534 9.7009 11.6282C9.92572 11.4034 10.0521 11.0982 10.0521 10.7798V9.97979C10.0521 8.43336 8.79848 7.17979 7.25215 7.17979ZM5.25215 0.779785C3.70689 0.779785 2.45215 2.0346 2.45215 3.57979C2.45215 5.12497 3.70689 6.37979 5.25215 6.37979C6.79768 6.37979 8.05215 5.12497 8.05215 3.57979C8.05215 2.0346 6.79768 0.779785 5.25215 0.779785Z" fill="black"/>
</svg>
