<svg width="16" height="16" viewBox="0 0 16 16" fill="none" xmlns="http://www.w3.org/2000/svg">
<path d="M10.7064 7.3423C10.5161 6.91447 10.2491 6.51188 9.8981 6.16084C9.54687 5.80999 9.14444 5.54286 8.71664 5.35254L8.18661 5.88257L7.81844 6.25055L7.43622 6.63277C7.3652 6.70359 7.30477 6.78057 7.25204 6.86121C7.75936 6.89431 8.23416 7.09889 8.59693 7.46184C8.9701 7.83463 9.16411 8.31498 9.19623 8.80363C9.21451 9.07518 9.18103 9.34731 9.09384 9.60809C8.99723 9.89812 8.84134 10.1716 8.61521 10.4049C8.60809 10.4116 8.60405 10.4201 8.5975 10.427L8.16351 10.8606L7.5615 11.4626L6.99994 12.0246L5.53592 13.4886C5.13984 13.8847 4.61366 14.1023 4.05303 14.1023C3.49358 14.1023 2.96641 13.8841 2.57014 13.488C2.17464 13.0925 1.9566 12.5657 1.9566 12.0057C1.9566 11.4457 2.17426 10.9187 2.57034 10.5228L4.03647 9.05648C3.95256 8.79647 3.89271 8.53029 3.85595 8.26182C3.82862 8.06167 3.81014 7.86017 3.80918 7.65848C3.80649 7.28742 3.85229 6.91674 3.93813 6.55377L1.26914 9.22236C-0.267449 10.7595 -0.267449 13.252 1.26914 14.7892C2.03783 15.5573 3.04513 15.942 4.05223 15.942C5.05993 15.942 6.06722 15.5577 6.83552 14.7892L9.50027 12.1245L9.89711 11.728C10.1242 11.5007 10.3138 11.2505 10.4735 10.9877C10.725 10.5752 10.8961 10.1284 10.9816 9.66722C11.0256 9.43011 11.0491 9.18993 11.0491 8.94937C11.0497 8.65569 11.0135 8.36258 10.9487 8.07466C10.893 7.82446 10.8122 7.57946 10.7064 7.34237L10.7064 7.3423Z" fill="black"/>
<path d="M14.2765 1.78218C13.5078 1.01369 12.5003 0.629395 11.4934 0.629395C10.4857 0.629587 9.47839 1.01373 8.7101 1.78238L5.64869 4.84379C5.4214 5.07108 5.23203 5.32127 5.0721 5.5838C4.82075 5.99624 4.64947 6.4431 4.56365 6.90425C4.51957 7.14136 4.49609 7.38174 4.49609 7.6221C4.4959 7.91578 4.5317 8.20889 4.59656 8.49701C4.65314 8.74663 4.73397 8.99182 4.84001 9.2291C5.03035 9.65654 5.2971 10.059 5.64832 10.41C5.99954 10.7611 6.40178 11.028 6.82978 11.2185L7.35942 10.6889L7.72759 10.3209L8.10942 9.93907C8.18044 9.86805 8.24106 9.79107 8.29379 9.71024C7.78628 9.67714 7.31147 9.47294 6.94832 9.1096C6.57457 8.73624 6.38059 8.25489 6.34842 7.76511C6.33091 7.49433 6.36516 7.22375 6.45177 6.96336C6.548 6.67333 6.7037 6.39948 6.93041 6.16659C6.93714 6.15985 6.94157 6.15158 6.9485 6.14446L7.38229 5.71066L7.9847 5.10865L8.54666 4.54669L10.0103 3.08326C10.4064 2.68718 10.9327 2.46893 11.4934 2.46893C12.0534 2.46893 12.58 2.68717 12.9757 3.08306C13.7936 3.90063 13.7936 5.23108 12.9762 6.04845L11.5095 7.51478C11.5936 7.77518 11.6533 8.04097 11.69 8.30963C11.7176 8.50979 11.7358 8.71129 11.7368 8.91278C11.7395 9.28403 11.6939 9.65452 11.6073 10.0175L14.2765 7.34889C15.8131 5.81176 15.8131 3.31945 14.2765 1.78252L14.2765 1.78218Z" fill="black"/>
</svg>
