<svg width="12" height="15" viewBox="0 0 12 15" fill="none" xmlns="http://www.w3.org/2000/svg">
<path d="M1.59993 8.39986V4.67986C1.60194 3.54548 2.05353 2.45797 2.85578 1.65589C3.65799 0.853674 4.74537 0.402062 5.87988 0.399902H6.12792C7.26096 0.404188 8.34631 0.856725 9.14681 1.6587C9.94731 2.46068 10.3978 3.54682 10.3998 4.67986V8.39986C10.7999 9.19995 12.3999 10.7999 11.5998 12.4H0.400076C-0.400016 10.7999 1.20003 9.20002 1.60008 8.39986H1.59993Z" fill="black"/>
<path d="M4.39952 13.2C4.39952 13.6244 4.56813 14.0312 4.86813 14.3314C5.16827 14.6314 5.57528 14.8 5.99956 14.8C6.42385 14.8 6.83086 14.6314 7.13099 14.3314C7.43099 14.0312 7.59961 13.6244 7.59961 13.2H4.39952Z" fill="black"/>
</svg>
