<svg width="14" height="14" viewBox="0 0 14 14" fill="none" xmlns="http://www.w3.org/2000/svg">
<path d="M7.36482 2.83372L0.713599 9.48494H0.713487C0.474864 9.72535 0.324756 10.0396 0.287784 10.3763L0.154831 13.3959C0.141803 13.5069 0.180441 13.6178 0.259501 13.6969C0.338558 13.776 0.449465 13.8146 0.560492 13.8016L3.59349 13.6619H3.59361C3.93031 13.625 4.24456 13.4749 4.48486 13.2362L11.1361 6.58502C11.1809 6.54114 11.206 6.48124 11.206 6.41866C11.206 6.35608 11.1809 6.29617 11.1361 6.25242L7.69745 2.83373C7.65369 2.78908 7.59378 2.76392 7.53121 2.76392C7.46863 2.76392 7.40872 2.78908 7.36496 2.83373L7.36482 2.83372Z" fill="black"/>
<path d="M9.97182 0.498792C9.795 0.497679 9.62508 0.567161 9.4996 0.69165L8.54175 1.6495C8.49064 1.70061 8.46191 1.76998 8.46191 1.84236C8.46191 1.91473 8.49064 1.98411 8.54175 2.03521L11.9208 5.41427C11.9724 5.46471 12.0415 5.49333 12.1137 5.494C12.1862 5.49478 12.2559 5.46605 12.3065 5.41427L13.2644 4.48972C13.3903 4.36479 13.4611 4.19474 13.4611 4.0175C13.4611 3.84011 13.3903 3.67007 13.2644 3.54527L10.4442 0.691856C10.3187 0.567366 10.1488 0.497883 9.97197 0.498998L9.97182 0.498792Z" fill="black"/>
</svg>
