<svg width="15" height="13" viewBox="0 0 15 13" fill="none" xmlns="http://www.w3.org/2000/svg">
<path d="M10.3577 0.352194C9.40671 0.352194 8.5062 0.668418 7.75353 1.26654C7.7491 1.27012 7.74395 1.27241 7.73938 1.27569C7.73137 1.28113 7.72365 1.2867 7.71551 1.29113C7.70893 1.29457 7.70207 1.29685 7.69535 1.29957C7.68777 1.30271 7.68034 1.30614 7.67247 1.30857C7.6649 1.31086 7.65732 1.31201 7.6496 1.31344C7.64202 1.31486 7.63473 1.31658 7.62701 1.31744C7.61929 1.31801 7.61157 1.31772 7.60385 1.31772C7.59613 1.31772 7.58841 1.31801 7.58084 1.31744C7.57326 1.31687 7.56597 1.31486 7.55854 1.31358C7.55067 1.31215 7.54281 1.31086 7.53509 1.30857C7.52751 1.30629 7.52051 1.303 7.51322 1.30014C7.50621 1.29728 7.49892 1.29471 7.49192 1.29099C7.48434 1.28699 7.47733 1.28184 7.47004 1.27684C7.46475 1.27326 7.45918 1.27055 7.45403 1.26654C6.70152 0.668396 5.801 0.352194 4.8499 0.352194C2.49478 0.352194 0.578613 2.32875 0.578613 4.75816C0.578613 5.86637 0.978917 6.92543 1.70571 7.74042C1.70957 7.74471 1.71357 7.74942 1.71714 7.754C1.73458 7.77573 3.42694 9.94655 7.60421 12.699C11.7902 9.94051 13.4737 7.77596 13.4905 7.754C13.4941 7.74942 13.498 7.74456 13.502 7.74027C14.2288 6.92525 14.6291 5.86608 14.6291 4.75802C14.6289 2.32857 12.7129 0.352051 10.3578 0.352051L10.3577 0.352194Z" fill="black"/>
</svg>
