<svg width="14" height="14" viewBox="0 0 14 14" fill="none" xmlns="http://www.w3.org/2000/svg">
<path fill-rule="evenodd" clip-rule="evenodd" d="M12.0162 7.91232L12.5952 8.24647C12.988 8.47351 13.1232 8.97755 12.8961 9.3702L12.0858 10.7739C11.9761 10.9637 11.7987 11.0997 11.5861 11.1567C11.3736 11.2138 11.1518 11.1847 10.962 11.0751L10.3824 10.7405C9.84064 11.2262 9.20464 11.5938 8.51607 11.8193V12.4874C8.51607 12.9409 8.14693 13.31 7.69339 13.31H6.07256C5.619 13.31 5.24989 12.9409 5.24989 12.4874V11.8193C4.56162 11.5938 3.92562 11.2261 3.38378 10.7405L2.80401 11.0751C2.614 11.1847 2.39246 11.2138 2.17989 11.1567C1.96733 11.0997 1.78983 10.9637 1.68025 10.7739L0.869909 9.3702C0.76033 9.18019 0.731288 8.95866 0.788292 8.74608C0.845309 8.53352 0.981337 8.35602 1.17113 8.24644L1.75012 7.9123C1.67628 7.55884 1.63881 7.1975 1.63881 6.83442C1.63881 6.47134 1.67617 6.11 1.75012 5.75654L1.17113 5.42239C0.778168 5.19546 0.643109 4.69129 0.869934 4.29852L1.68028 2.89482C1.9071 2.50185 2.41139 2.3668 2.80415 2.59362L3.3838 2.92829C3.92553 2.44258 4.56165 2.07497 5.25011 1.84944V1.18138C5.25011 0.727809 5.61924 0.358704 6.07278 0.358704L7.69381 0.358812C8.14737 0.358812 8.51648 0.727944 8.51648 1.18148V1.84955C9.20475 2.07507 9.84075 2.4428 10.3826 2.9284L10.9624 2.59373C11.1524 2.48415 11.3739 2.45511 11.5865 2.51211C11.799 2.56913 11.9765 2.70516 12.0861 2.89495L12.8965 4.29866C13.006 4.48867 13.0351 4.7102 12.9781 4.92278C12.9211 5.13534 12.785 5.31284 12.5952 5.42242L12.0162 5.75656C12.0901 6.11002 12.1276 6.47136 12.1276 6.83444C12.1276 7.19752 12.0902 7.55886 12.0162 7.91232ZM6.88319 9.88166C8.56614 9.88166 9.93045 8.51736 9.93045 6.8344C9.93045 5.15145 8.56614 3.78714 6.88319 3.78714C5.20023 3.78714 3.83593 5.15145 3.83593 6.8344C3.83593 8.51736 5.20023 9.88166 6.88319 9.88166Z" fill="black"/>
</svg>
